<svg width="20" height="20" viewBox="0 0 20 20" xmlns="http://www.w3.org/2000/svg">
    <path d="M0.243 5.854L9.49 0.309998C9.64542 0.216747 9.82325 0.167488 10.0045 0.167488C10.1857 0.167488 10.3636 0.216747 10.519 0.309998L19.757 5.855C19.8311 5.89941 19.8925 5.96228 19.9351 6.03746C19.9776 6.11265 20 6.19759 20 6.284V19C20 19.2652 19.8946 19.5196 19.7071 19.7071C19.5196 19.8946 19.2652 20 19 20H1C0.734784 20 0.48043 19.8946 0.292893 19.7071C0.105357 19.5196 1.10073e-08 19.2652 1.10073e-08 19V6.283C-1.81179e-05 6.19659 0.0223578 6.11165 0.0649455 6.03646C0.107533 5.96128 0.168879 5.89841 0.243 5.854ZM2 7.133V18H18V7.132L10.004 2.332L2 7.132V7.133ZM10.06 12.698L15.356 8.235L16.644 9.765L10.074 15.302L3.364 9.772L4.636 8.228L10.06 12.698Z"/>
</svg>
