<svg width="52" height="52" viewBox="0 0 52 52" fill="none" xmlns="http://www.w3.org/2000/svg">
    <path d="M20.8337 5.33342C12.2732 5.33342 5.33366 12.273 5.33366 20.8334C5.33366 29.3938 12.2732 36.3334 20.8337 36.3334C29.3941 36.3334 36.3337 29.3938 36.3337 20.8334C36.3337 12.273 29.3941 5.33342 20.8337 5.33342ZM0.166992 20.8334C0.166992 9.41953 9.41978 0.166748 20.8337 0.166748C32.2475 0.166748 41.5003 9.41953 41.5003 20.8334C41.5003 25.6093 39.8804 30.0067 37.16 33.5063L51.077 47.4234C52.0859 48.4322 52.0859 50.0679 51.077 51.0768C50.0682 52.0856 48.4325 52.0856 47.4236 51.0768L33.5066 37.1597C30.007 39.8801 25.6095 41.5001 20.8337 41.5001C9.41978 41.5001 0.166992 32.2473 0.166992 20.8334Z" fill="#A6A6A6"/>
</svg>
