<svg width="16" height="16" viewBox="0 0 13 15" xmlns="http://www.w3.org/2000/svg">
    <path d="M7.33341 9.50132V10.8947C6.73003 10.6813 6.08426 10.6159 5.45035 10.7038C4.81644 10.7918 4.21288 11.0306 3.69037 11.4001C3.16786 11.7697 2.74164 12.2592 2.44752 12.8276C2.1534 13.396 1.99996 14.0267 2.00008 14.6667L0.666748 14.666C0.666541 13.8519 0.852696 13.0486 1.21095 12.3176C1.5692 11.5866 2.09004 10.9473 2.73356 10.4487C3.37708 9.95008 4.1262 9.60541 4.92352 9.44109C5.72083 9.27676 6.54519 9.29714 7.33341 9.50066V9.50132ZM6.00008 8.66666C3.79008 8.66666 2.00008 6.87666 2.00008 4.66666C2.00008 2.45666 3.79008 0.666656 6.00008 0.666656C8.21008 0.666656 10.0001 2.45666 10.0001 4.66666C10.0001 6.87666 8.21008 8.66666 6.00008 8.66666ZM6.00008 7.33332C7.47341 7.33332 8.66675 6.13999 8.66675 4.66666C8.66675 3.19332 7.47341 1.99999 6.00008 1.99999C4.52675 1.99999 3.33341 3.19332 3.33341 4.66666C3.33341 6.13999 4.52675 7.33332 6.00008 7.33332ZM10.3907 11.3333L9.17141 10.1147L10.1147 9.17132L12.9427 12L10.1147 14.8287L9.17141 13.8853L10.3907 12.6667H8.00008V11.3333H10.3907Z"/>
</svg>
